<svg version="1.1" id="Layer_1" xmlns="http://www.w3.org/2000/svg" xmlns:xlink="http://www.w3.org/1999/xlink" x="0px" y="0px"
	 width="100%" viewBox="0 0 512 512" enable-background="new 0 0 512 512" xml:space="preserve">
<path fill="#000000" opacity="1.000000" stroke="none" 
	d="
M448.351929,373.746765 
	C386.588837,332.994385 325.126617,292.448517 263.835083,252.015244 
	C261.628693,252.503799 261.040253,254.201813 260.144623,255.537994 
	C252.352188,267.163544 244.675293,278.867859 236.762756,290.410767 
	C234.703629,293.414673 234.857117,295.252380 237.398880,298.047150 
	C247.684265,309.356171 247.935715,325.222595 238.411072,336.322357 
	C228.875870,347.434418 212.884186,349.677490 200.396713,341.510559 
	C162.190887,316.523560 123.993874,291.522919 85.844528,266.449799 
	C67.137444,254.154831 66.579193,228.781616 84.778893,217.289200 
	C92.854965,212.189438 101.676071,210.965042 110.548653,214.878845 
	C114.566582,216.651199 116.632919,215.996414 119.046486,212.420074 
	C143.091644,176.790726 167.296677,141.269287 191.451431,105.713875 
	C197.711548,96.499062 203.953613,87.271980 209.947632,78.428749 
	C209.814880,76.459023 208.576691,76.030701 207.729828,75.297935 
	C196.411606,65.504471 194.076935,48.763927 202.389160,36.895142 
	C211.082626,24.482010 227.313232,20.533798 240.467743,28.492887 
	C254.428818,36.939987 267.908539,46.184502 281.572693,55.120140 
	C306.812317,71.625526 332.085724,88.080109 357.242249,104.711380 
	C372.557922,114.836769 375.769348,133.147903 364.990875,147.291275 
	C357.523468,157.089935 343.891449,160.791595 331.710266,155.925262 
	C328.585022,154.676727 326.984528,155.100525 325.199097,157.829941 
	C316.990540,170.378174 308.676605,182.858597 300.274017,195.277817 
	C298.426056,198.009171 298.891418,199.399414 301.629883,201.199982 
	C362.322693,241.106186 422.801758,281.339813 483.679016,320.961823 
	C504.868011,334.752716 503.823151,363.450378 485.679596,375.038818 
	C473.227478,382.992035 460.771729,381.964722 448.351929,373.746765 
M190.066483,134.517365 
	C169.523529,164.735901 148.980591,194.954422 128.596497,224.939285 
	C129.391800,225.939316 129.546509,226.270813 129.806702,226.441605 
	C159.036880,245.627151 188.296539,264.767944 217.481781,284.021576 
	C220.691620,286.139099 222.340988,285.247864 224.271210,282.346527 
	C253.602707,238.258286 282.972961,194.195587 312.479767,150.224609 
	C314.942841,146.554108 313.962402,145.008942 310.677643,142.875702 
	C286.103088,126.915855 261.644257,110.777847 237.128540,94.727135 
	C232.594498,91.758652 227.967056,88.932800 223.087677,85.855011 
	C211.947449,102.262093 201.201263,118.088814 190.066483,134.517365 
M353.977966,293.474945 
	C368.286987,302.920868 382.595856,312.367035 396.905090,321.812622 
	C417.187256,335.201050 437.456451,348.609039 457.758667,361.966949 
	C465.458862,367.033325 472.714020,366.691711 478.971954,361.593048 
	C486.375702,355.560760 487.994232,341.587708 474.959137,333.115265 
	C422.898285,299.277283 371.188629,264.899048 319.339447,230.735275 
	C309.638306,224.343109 299.893311,218.017578 289.651062,211.323044 
	C283.432098,220.642578 277.486298,229.552795 271.180786,239.002014 
	C298.929749,257.259949 326.150208,275.170105 353.977966,293.474945 
M186.793869,281.759064 
	C166.171707,268.244324 145.552902,254.724426 124.925217,241.218094 
	C119.071236,237.385086 113.238007,233.517166 107.308975,229.803009 
	C102.329140,226.683456 97.245766,226.638062 92.307167,229.995712 
	C87.568939,233.217148 85.687630,237.784576 86.399956,243.388672 
	C87.016724,248.241013 90.056175,251.359756 94.013794,253.933548 
	C111.051720,265.013916 128.025604,276.192780 145.027008,287.329346 
	C165.790634,300.930328 186.551605,314.535431 207.331146,328.112091 
	C210.857483,330.416077 214.527863,332.452881 218.998734,331.259888 
	C225.006775,329.656738 229.004105,325.968445 230.030228,319.706512 
	C231.030670,313.601440 228.256241,309.013672 223.331680,305.741394 
	C211.398254,297.811981 199.377686,290.013733 186.793869,281.759064 
M236.185532,76.268867 
	C242.184311,80.181259 248.191437,84.080940 254.180435,88.008255 
	C280.643463,105.361519 307.061646,122.783592 333.585388,140.043533 
	C341.421448,145.142715 349.812805,143.551300 354.166718,136.623962 
	C358.543762,129.659836 356.506470,122.210152 348.656708,116.975990 
	C341.313202,112.079384 333.884613,107.310432 326.502319,102.471855 
	C296.136505,82.569229 265.780945,62.650921 235.405655,42.762745 
	C227.453461,37.556046 219.312576,38.721500 214.776642,45.616661 
	C210.131012,52.678612 212.173660,60.319038 220.170624,65.661888 
	C225.294754,69.085381 230.447937,72.465378 236.185532,76.268867 
z"/>
<path fill="#000000" opacity="1.000000" stroke="none" 
	d="
M216.999619,384.652222 
	C221.498322,384.651794 225.497162,384.646576 229.496002,384.652344 
	C245.953278,384.676086 257.758942,396.244904 258.206818,412.838409 
	C258.305664,416.501526 258.288422,420.170044 258.226929,423.834442 
	C258.187744,426.168030 258.962555,427.223572 261.496826,427.828400 
	C277.827881,431.725983 285.345062,441.412506 285.345642,458.094940 
	C285.345917,465.592773 285.397095,473.091187 285.317688,480.588226 
	C285.249542,487.025696 282.958344,489.385040 276.573395,489.387085 
	C192.097931,489.414398 107.622475,489.412994 23.147017,489.387360 
	C16.810791,489.385437 14.676388,487.293945 14.612656,481.047302 
	C14.520986,472.062347 14.305514,463.063538 14.674989,454.092560 
	C15.241378,440.340393 24.033424,430.333923 37.684593,427.888428 
	C40.983723,427.297424 41.684738,425.994019 41.734760,423.038086 
	C41.830124,417.402954 41.151405,411.756805 42.518597,406.129852 
	C45.676201,393.134155 56.131416,384.666687 69.542458,384.661591 
	C118.528214,384.642944 167.513992,384.653137 216.999619,384.652222 
M94.499939,474.698730 
	C151.139206,474.705200 207.778610,474.664948 264.417542,474.804199 
	C269.096313,474.815704 271.224884,473.625671 270.716248,468.663330 
	C270.378296,465.366394 270.665710,462.006470 270.654633,458.674774 
	C270.616760,447.273621 265.625610,442.356903 254.110992,442.357849 
	C184.977768,442.363525 115.844559,442.367676 46.711338,442.375305 
	C45.045811,442.375488 43.368919,442.292419 41.716721,442.450653 
	C34.569843,443.135132 29.528954,448.522064 29.348221,455.730957 
	C29.239700,460.059540 29.633408,464.421753 29.236454,468.716614 
	C28.772511,473.736237 30.887857,474.843170 35.529026,474.790466 
	C54.850517,474.571075 74.175941,474.698151 94.499939,474.698730 
M231.465881,427.636566 
	C242.884369,427.636292 242.884293,427.636292 242.959427,416.338013 
	C242.961639,416.004944 242.971497,415.671875 242.971710,415.338806 
	C242.978699,403.880920 238.450851,399.336884 226.952820,399.335083 
	C177.320694,399.327362 127.688576,399.332184 78.056450,399.332581 
	C59.625172,399.332703 56.158638,402.827728 56.413399,421.152313 
	C56.503242,427.614716 56.503246,427.637085 63.093983,427.637634 
	C118.888481,427.642273 174.682983,427.638092 231.465881,427.636566 
z"/>
</svg>